<?xml version="1.0" encoding="UTF-8" standalone="no"?>
<svg
   xmlns:dc="http://purl.org/dc/elements/1.1/"
   xmlns:cc="http://creativecommons.org/ns#"
   xmlns:rdf="http://www.w3.org/1999/02/22-rdf-syntax-ns#"
   xmlns:svg="http://www.w3.org/2000/svg"
   xmlns="http://www.w3.org/2000/svg"
   xmlns:sodipodi="http://sodipodi.sourceforge.net/DTD/sodipodi-0.dtd"
   xmlns:inkscape="http://www.inkscape.org/namespaces/inkscape"
   width="267px"
   height="231px"
   viewBox="0 0 267 231"
   version="1.1"
   id="svg3716"
   inkscape:version="0.91 r13725"
   sodipodi:docname="idin-logo.svg">
  <metadata
     id="metadata3734">
    <rdf:RDF>
      <cc:Work
         rdf:about="">
        <dc:format>image/svg+xml</dc:format>
        <dc:type
           rdf:resource="http://purl.org/dc/dcmitype/StillImage" />
        <dc:title></dc:title>
      </cc:Work>
    </rdf:RDF>
  </metadata>
  <defs
     id="defs3732" />
  <sodipodi:namedview
     pagecolor="#ffffff"
     bordercolor="#666666"
     borderopacity="1"
     objecttolerance="10"
     gridtolerance="10"
     guidetolerance="10"
     inkscape:pageopacity="0"
     inkscape:pageshadow="2"
     inkscape:window-width="1885"
     inkscape:window-height="1154"
     id="namedview3730"
     showgrid="false"
     inkscape:zoom="5.1298701"
     inkscape:cx="195.87975"
     inkscape:cy="177.87975"
     inkscape:window-x="0"
     inkscape:window-y="0"
     inkscape:window-maximized="0"
     inkscape:current-layer="svg3716" />
  <g
     id="Page-1"
     stroke="none"
     stroke-width="1"
     fill="none"
     fill-rule="evenodd">
    <g
       id="Desktop"
       transform="translate(-369.000000, -396.000000)">
      <g
         id="iDIN_logo"
         transform="translate(369.000000, 396.000000)">
        <g
           id="Group"
           fill="#FFFFFF">
          <polygon
             id="Path-2"
             points="6.14088905 7.51680358 6.07616701 224.669249 155.772088 224.487491 209.708664 211.656553 236.458901 188.165002 261.665054 146.275765 262.649754 98.685773 249.4819 61.2465459 216.225558 22.7260082 173.666191 10.6344287 84.2080005 6.9684466" />
          <path
             d="M10.8527647,10.841301 L10.8527647,219.676515 L137.78434,219.676515 C214.435777,219.676515 256.129286,183.987015 256.129286,114.993146 C256.129286,44.0884806 210.932244,10.8401796 137.78434,10.8401796 L10.8527647,10.8401796 L10.8527647,10.841301 Z M137.78434,0.00224271845 C250.190218,0.00224271845 266.973076,72.0540583 266.973076,114.994267 C266.973076,189.49401 221.09395,230.520058 137.78434,230.520058 L0.00673109244,230.520058 L0.00673109244,0.00224271845 L137.78434,0.00224271845 Z"
             id="Shape" />
        </g>
        <path
           d="M93.759,86.396 L93.759,107.334 L100.183,107.334 C104.64,107.334 108.753,106.048 108.753,96.706 C108.753,87.563 104.177,86.396 100.183,86.396 L93.759,86.396 Z M226.802,107.333 C222.577,50.43 177.809,38.138 137.136,38.138 L93.769,38.138 L93.769,75.994 L100.184,75.994 C111.889,75.994 119.165,83.935 119.165,96.705 C119.165,109.868 112.066,117.733 100.184,117.733 L93.769,117.733 L93.769,193.483 L137.137,193.483 C203.27,193.483 226.286,162.775 227.098,117.733 L226.802,107.333 Z"
           id="path3534"
           fill="#00B0F0" />
        <rect
           id="Rectangle-path"
           fill="#FFFFFF"
           x="128.717"
           y="76.006"
           width="12.428"
           height="41.793" />
        <polygon
           id="polygon3537"
           fill="#FFFFFF"
           points="179.517 117.798 191.339 117.798 191.339 76.005 179.693 76.005 179.693 100.372 163.11 76.005 151.406 76.005 151.406 117.798 163.022 117.798 163.022 93.613" />
        <path
           d="M24.674,22.668 L24.674,208.902 L137.819,208.902 C206.145,208.902 243.31,177.075 243.31,115.548 C243.31,52.317 203.022,22.667 137.819,22.667 L24.674,22.667 L24.674,22.668 Z M137.819,13.002 C238.016,13.002 252.976,77.256 252.976,115.549 C252.976,181.986 212.08,218.572 137.819,218.572 L15.006,218.572 L15.006,13.002 L137.819,13.002 Z"
           id="path3539"
           fill="#000000" />
        <rect
           id="rect3541"
           fill="#000000"
           x="39.853"
           y="129.245"
           width="36.219"
           height="64.478" />
        <path
           d="M80.47,96.765 C80.47,109.199 70.395,119.279 57.959,119.279 C45.532,119.279 35.447,109.199 35.447,96.765 C35.447,84.338 45.532,74.254 57.959,74.254 C70.396,74.254 80.47,84.338 80.47,96.765"
           id="path3543"
           fill="#000000" />
      </g>
    </g>
  </g>
</svg>
