<svg xmlns="http://www.w3.org/2000/svg" height="1020" viewBox="0 0 1024 1024" width="1020" fill="#a0a5aa"><path d="m277.91 840.6h-164.09v-272.46h164.09v272.46"/><path id="path16" d="m290.3 431.91c0 51.295-41.589 92.903-92.884 92.903-51.293 0-92.884-41.607-92.884-92.903 0-51.295 41.591-92.884 92.884-92.884 51.295 0 92.884 41.589 92.884 92.884"/><path id="path18" d="m577.59 124.88c114.1 0 209.19 30.913 275 89.397 74.393 66.115 112.11 166.28 112.11 297.72 0 260.49-126.63 387.12-387.11 387.12h-518.29v-774.23h518.29zm11.14-59.299h-588.73v892.83h588.73v-0.16936c128.59-1.75 230.47-33.69 302.77-95.2 87.92-74.81 132.5-192.91 132.5-351.04 0-75.59-11.7-143.39-34.85-201.52-22.12-55.6-54.82-102.88-97.17-140.52-74.6-66.3-179.31-102.14-303.25-104.18v-0.19652"/><path id="path20" d="m353.25 197.07v157.82h21.6c15.93 0 28.81 2.15 38.61 6.44 9.81 4.29 17.92 10.45 24.33 18.47 6.4 8.03 11.05 17.37 13.93 28.01 2.88 10.65 4.32 21.93 4.32 33.85 0 18.68-2.14 33.16-6.42 43.45-4.29 10.29-10.23 18.91-17.84 25.86s-15.78 11.58-24.5 13.88c-11.93 3.18-22.74 4.77-32.43 4.77h-21.6v311.29h199.74c173.58 0 358.34-52.27 358.34-321.07 0-254.26-184.76-322.77-358.34-322.77h-199.74zm133.54 157.82h54.53v174.73h-54.53v-174.73zm93.93 0h50.81l66.3 96.67v-96.67h51.29v174.73h-51.29l-65.94-95.93v95.93h-51.17v-174.73zm-227.47 39.57v95.47h8.51c11.36 0 19.45-1.25 24.26-3.75 4.8-2.5 8.56-6.87 11.29-13.11 2.72-6.24 4.08-16.35 4.08-30.34 0-18.51-3.04-31.18-9.13-38.02-6.08-6.83-16.17-10.25-30.26-10.25h-8.75z"/></svg>
