<?xml version="1.0" encoding="UTF-8" standalone="no"?>
<svg
   xmlns:dc="http://purl.org/dc/elements/1.1/"
   xmlns:cc="http://creativecommons.org/ns#"
   xmlns:rdf="http://www.w3.org/1999/02/22-rdf-syntax-ns#"
   xmlns:svg="http://www.w3.org/2000/svg"
   xmlns="http://www.w3.org/2000/svg"
   viewBox="0 0 465.6875 181.425"
   height="181.425"
   width="465.6875"
   xml:space="preserve"
   version="1.1"
   id="svg2"><metadata
     id="metadata8"><rdf:RDF><cc:Work
         rdf:about=""><dc:format>image/svg+xml</dc:format><dc:type
           rdf:resource="http://purl.org/dc/dcmitype/StillImage" /></cc:Work></rdf:RDF></metadata><defs
     id="defs6" /><g
     transform="matrix(1.25,0,0,-1.25,0,181.425)"
     id="g10"><g
       transform="scale(0.1,0.1)"
       id="g12"><path
         id="path14"
         style="fill:#19b5ec;fill-opacity:1;fill-rule:nonzero;stroke:none"
         d="m 3422.64,306.281 0,-302.83178 302.83,0.01172 0,302.82806 -302.83,-0.008" /><path
         id="path16"
         style="fill:#231f20;fill-opacity:1;fill-rule:nonzero;stroke:none"
         d="M 0,464.164 C 0,211.789 205.566,0 467.168,0 l 31.191,0 0,280.461 -22.004,0 c -90.125,0 -164.851,71.367 -164.851,158.769 l 0,117.512 L 0,495.512 0,464.164" /><path
         id="path18"
         style="fill:#231f20;fill-opacity:1;fill-rule:nonzero;stroke:none"
         d="m 803.398,445.418 c 0,-133.777 -59.238,-164.957 -165,-164.957 l -28.039,0 0,-280.461 37.414,0 c 261.536,0 466.967,193.102 466.967,445.418 l 0,9.379 -311.342,0 0,-9.379" /><path
         id="path20"
         style="fill:#231f20;fill-opacity:1;fill-rule:nonzero;stroke:none"
         d="m 1326.83,3.46875 311.28,0 0,814.01525 -311.28,-61.171 0,-752.84425" /><path
         id="path22"
         style="fill:#231f20;fill-opacity:1;fill-rule:nonzero;stroke:none"
         d="m 2116.38,3.46875 311.36,0 0,969.23025 -311.36,-61.172 0,-908.05825" /><path
         id="path24"
         style="fill:#231f20;fill-opacity:1;fill-rule:nonzero;stroke:none"
         d="m 2870.63,1059.74 c 5.54,-16.01 8.59,-32.97 8.59,-50.43 l 0,-1005.84125 311.56,0 0,1005.84125 c 0,38.48 -4.2,75.62 -12.07,110.98 l -308.08,-60.55" /><path
         id="path26"
         style="fill:#393536;fill-opacity:1;fill-rule:nonzero;stroke:none"
         d="m 476.355,1171.02 22.004,0 0,280.11 -40.586,0 C 196.223,1451.13 0,1239.41 0,984.133 l 0,-488.621 311.504,61.23 0,452.388 c 0,90.12 74.726,161.89 164.851,161.89" /><path
         id="path28"
         style="fill:#393536;fill-opacity:1;fill-rule:nonzero;stroke:none"
         d="m 638.398,1451.13 -28.039,0 0,-280.11 28.039,0 c 90.352,0 161.915,-56.15 161.915,-146.24 l 0,-9.44 314.427,0 0,9.44 c 0,248.85 -199.369,426.35 -476.342,426.35" /><path
         id="path30"
         style="fill:#393536;fill-opacity:1;fill-rule:nonzero;stroke:none"
         d="m 1326.83,1451.37 0,-695.057 311.28,61.171 0,633.886 -311.28,0" /><path
         id="path32"
         style="fill:#393536;fill-opacity:1;fill-rule:nonzero;stroke:none"
         d="m 3059.83,1336.26 c -80.9,77.64 -174.36,115.08 -298.83,115.08 l -199.29,0 c -112.17,0 -196.2,-37.44 -283.41,-115.08 -80.94,77.64 -140,115.08 -267.81,115.08 l -267.66,0 0,-280.45 214.84,0 c 90.27,0 158.71,-71.41 158.71,-155.36 l 0,-104.003 311.36,61.172 0,42.831 c 0,83.95 74.8,155.36 164.99,155.36 l 121.49,0 c 72.13,0 134.32,-47.66 156.41,-111.15 l 308.08,60.55 c -18.85,84.68 -59.54,158.98 -118.88,215.97" /></g></g></svg>