<?xml version="1.0" encoding="utf-8"?>
<!-- Generator: Adobe Illustrator 20.1.0, SVG Export Plug-In . SVG Version: 6.00 Build 0)  -->
<svg version="1.1" id="Layer_1" xmlns="http://www.w3.org/2000/svg" xmlns:xlink="http://www.w3.org/1999/xlink" x="0px" y="0px"
	 viewBox="0 0 141.7 141.7" style="enable-background:new 0 0 141.7 141.7;" xml:space="preserve">
<style type="text/css">
	.st0{fill:#101E1E;}
	.st1{fill:#1657EA;}
	.st2{fill:#FFFFFF;}
</style>
<g>
	<path class="st0" d="M71,2.4C33.2,2.4,2.5,33.1,2.5,70.9c0,37.8,30.7,68.5,68.5,68.5c37.8,0,68.5-30.7,68.5-68.5
		C139.5,33.1,108.8,2.4,71,2.4"/>
	<path class="st1" d="M115.9,85.6c0-3,2.4-5.5,5.5-5.5c3,0,5.5,2.4,5.5,5.5c0,3-2.4,5.5-5.5,5.5C118.3,91,115.9,88.6,115.9,85.6"/>
	<path class="st2" d="M42.5,93.8c-12.6,0-22.9-10.3-22.9-22.9C19.6,58.3,29.8,48,42.5,48c2.4,0,4.9,0.4,7.2,1.1
		c2.5,0.8,3.9,3.6,3.1,6.1c-0.8,2.5-3.6,3.9-6.1,3.1c-1.3-0.4-2.7-0.7-4.1-0.7c-7.3,0-13.2,5.9-13.2,13.2c0,7.3,5.9,13.2,13.2,13.2
		c6.8,0,10.6-3.6,13.9-12.7l7.2-20.2c0.7-1.9,2.5-3.2,4.5-3.2c2,0,3.8,1.2,4.6,3.1l8.3,21.5l8.4-21.5c0.7-1.9,2.5-3.1,4.5-3.1
		c0,0,0,0,0.1,0c2,0,3.8,1.3,4.5,3.2l12,33.4c0.9,2.5-0.4,5.3-2.9,6.2c-2.5,0.9-5.3-0.4-6.2-2.9l-7.6-21.2l-8.2,21
		c-0.7,1.9-2.5,3.1-4.5,3.1h0c-2,0-3.8-1.2-4.5-3.1l-8.1-21l-2.8,7.9C62.5,82.9,57,93.8,42.5,93.8"/>
</g>
</svg>
