<?xml version="1.0" encoding="UTF-8" standalone="no"?>
<svg
   xmlns:dc="http://purl.org/dc/elements/1.1/"
   xmlns:cc="http://creativecommons.org/ns#"
   xmlns:rdf="http://www.w3.org/1999/02/22-rdf-syntax-ns#"
   xmlns:svg="http://www.w3.org/2000/svg"
   xmlns="http://www.w3.org/2000/svg"
   viewBox="0 0 805.8667 702.64001"
   height="702.64001"
   width="805.8667"
   xml:space="preserve"
   id="svg2"
   version="1.1"><metadata
     id="metadata8"><rdf:RDF><cc:Work
         rdf:about=""><dc:format>image/svg+xml</dc:format><dc:type
           rdf:resource="http://purl.org/dc/dcmitype/StillImage" /></cc:Work></rdf:RDF></metadata><defs
     id="defs6" /><g
     transform="matrix(1.3333333,0,0,-1.3333333,0,702.64)"
     id="g10"><g
       transform="scale(0.1)"
       id="g12"><path
         id="path14"
         style="fill:#100f0d;fill-opacity:1;fill-rule:nonzero;stroke:none"
         d="M 1640.33,695.359 H 671.816 V 2303.53 H 1640.33 V 695.359" /><path
         id="path16"
         style="fill:#100f0d;fill-opacity:1;fill-rule:nonzero;stroke:none"
         d="m 1713.45,3107.57 c 0,-302.76 -245.47,-548.34 -548.23,-548.34 -302.747,0 -548.228,245.58 -548.228,548.34 0,302.76 245.481,548.23 548.228,548.23 302.76,0 548.23,-245.47 548.23,-548.23" /><path
         id="path18"
         style="fill:#100f0d;fill-opacity:1;fill-rule:nonzero;stroke:none"
         d="m 3409.09,4919.76 c 673.44,0 1234.71,-182.46 1623.14,-527.65 439.09,-390.23 661.73,-981.44 661.73,-1757.23 C 5693.96,1097.4 4946.57,350 3409.09,350 3289.6,350 657.258,350 350,350 c 0,313.539 0,4256.23 0,4569.76 307.258,0 2939.6,0 3059.09,0 z m 65.75,350 H 0 V 0 h 3474.84 v 1 c 759.03,10.3398 1360.33,198.902 1787.04,561.941 518.95,441.519 782.08,1138.629 782.08,2071.939 0,446.14 -69.21,846.32 -205.7,1189.41 -130.58,328.21 -323.55,607.27 -573.53,829.44 -440.28,391.28 -1058.31,602.85 -1789.89,614.87 0,0.01 0,1.16 0,1.16" /><path
         id="path20"
         style="fill:#53b1e7;fill-opacity:1;fill-rule:nonzero;stroke:none"
         d="M 3313.49,693.559 H 2085 V 4493.67 h 1228.49 -49.58 c 1024.52,0 2115.05,-404.33 2115.05,-1905.05 0,-1586.53 -1090.53,-1895.061 -2115.05,-1895.061 h 49.58" /><path
         id="path22"
         style="fill:#ffffff;fill-opacity:1;fill-rule:nonzero;stroke:none"
         d="m 2056.49,3328.61 v -563.48 h 78.7 c 67.1,0 114.84,7.38 143.2,22.16 28.36,14.77 50.57,40.56 66.64,77.38 16.06,36.81 24.11,96.49 24.11,179.04 0,109.26 -17.97,184.06 -53.88,224.4 -35.93,40.33 -95.48,60.5 -178.65,60.5 z m -321.14,233.55 h 477.11 c 94.04,0 170.03,-12.66 227.93,-37.98 57.88,-25.33 105.74,-61.68 143.56,-109.04 37.8,-47.38 65.22,-102.48 82.23,-165.32 17.01,-62.85 25.52,-129.44 25.52,-199.78 0,-110.22 -12.65,-195.69 -37.93,-256.42 -25.28,-60.74 -60.38,-111.62 -105.27,-152.65 -44.91,-41.05 -93.12,-68.36 -144.63,-81.96 -70.42,-18.76 -134.23,-28.14 -191.41,-28.14 h -477.11 v 1031.29" /><path
         id="path24"
         style="fill:#ffffff;fill-opacity:1;fill-rule:nonzero;stroke:none"
         d="m 2873.19,3562.16 h 321.85 V 2530.87 h -321.85 v 1031.29" /><path
         id="path26"
         style="fill:#ffffff;fill-opacity:1;fill-rule:nonzero;stroke:none"
         d="m 3427.58,3562.16 h 299.89 l 391.32,-570.55 v 570.55 h 302.73 V 2530.87 h -302.73 l -389.2,566.25 v -566.25 h -302.01 v 1031.29" /></g></g></svg>